<svg width="37" height="37" viewBox="0 0 37 37" fill="none" xmlns="http://www.w3.org/2000/svg">
<g filter="url(#filter0_d)">
<path d="M28.2559 1H7.37305C6.06455 1 5 2.06455 5 3.37305V24.2559C5 25.5644 6.06455 26.6289 7.37305 26.6289H22.9824C23.1923 26.6289 23.3934 26.5455 23.5417 26.3972L30.3972 19.5417C30.5456 19.3934 30.6289 19.1922 30.6289 18.9824V3.37305C30.6289 2.06455 29.5644 1 28.2559 1Z" fill="#696969"/>
<path d="M17.8145 1H7.37305C6.06455 1 5 2.06455 5 3.37305V13.8145H17.8145V1Z" fill="#696969"/>
<path d="M30.6289 13.8145V3.37305C30.6289 2.06455 29.5644 1 28.2559 1H17.8145V13.8145H30.6289Z" fill="#555555"/>
<path d="M17.8145 13.8145V26.6289H22.9824C23.1923 26.6289 23.3934 26.5455 23.5417 26.3972L30.3972 19.5417C30.5456 19.3934 30.6289 19.1922 30.6289 18.9824V13.8145H17.8145ZM29.8379 18.9824H29.8384H29.8379Z" fill="#414141"/>
<path d="M5 13.8145V24.2559C5 25.5644 6.06455 26.6289 7.37305 26.6289H17.8145V13.8145H5Z" fill="#555555"/>
<path d="M13.2529 6.61621H12.1982V5.56152C12.1982 5.12467 11.8441 4.77051 11.4072 4.77051C10.9704 4.77051 10.6162 5.12467 10.6162 5.56152V6.61621H9.56152C9.12467 6.61621 8.77051 6.97037 8.77051 7.40723C8.77051 7.84408 9.12467 8.19824 9.56152 8.19824H10.6162V9.25293C10.6162 9.68978 10.9704 10.0439 11.4072 10.0439C11.8441 10.0439 12.1982 9.68978 12.1982 9.25293V8.19824H13.2529C13.6898 8.19824 14.0439 7.84408 14.0439 7.40723C14.0439 6.97037 13.6898 6.61621 13.2529 6.61621Z" fill="#DCF5FA"/>
<path d="M26.0674 8.19824H22.376C21.9391 8.19824 21.585 7.84408 21.585 7.40723C21.585 6.97037 21.9391 6.61621 22.376 6.61621H26.0674C26.5042 6.61621 26.8584 6.97037 26.8584 7.40723C26.8584 7.84408 26.5042 8.19824 26.0674 8.19824Z" fill="#BEDCE6"/>
<path d="M12.5259 20.2217L13.285 19.4626C13.5939 19.1537 13.5939 18.6529 13.285 18.344C12.9761 18.0351 12.4752 18.0351 12.1663 18.344L11.4073 19.1031L10.6482 18.344C10.3393 18.0351 9.83846 18.0351 9.52954 18.344C9.22062 18.6529 9.22062 19.1537 9.52954 19.4626L10.2886 20.2217L9.52954 20.9808C9.22062 21.2897 9.22062 21.7905 9.52954 22.0994C9.684 22.2539 9.88645 22.3311 10.0888 22.3311C10.2912 22.3311 10.4937 22.2539 10.6481 22.0994L11.4072 21.3404L12.1663 22.0994C12.3207 22.2539 12.5232 22.3311 12.7256 22.3311C12.928 22.3311 13.1305 22.2539 13.2849 22.0994C13.5938 21.7905 13.5938 21.2897 13.2849 20.9808L12.5259 20.2217Z" fill="#DCF5FA"/>
<path d="M23.8262 28C19.3191 28 15.6523 24.3332 15.6523 19.8262C15.6523 15.3191 19.3191 11.6523 23.8262 11.6523C28.3333 11.6523 32 15.3191 32 19.8262C32 24.3332 28.3333 28 23.8262 28Z" fill="#5FC314"/>
<path d="M25.6719 22.1992H21.9805C21.5436 22.1992 21.1895 21.8451 21.1895 21.4082C21.1895 20.9714 21.5436 20.6172 21.9805 20.6172H25.6719C26.1087 20.6172 26.4629 20.9714 26.4629 21.4082C26.4629 21.8451 26.1087 22.1992 25.6719 22.1992Z" fill="#BEDCE6"/>
<path d="M25.6719 19.0352H21.9805C21.5436 19.0352 21.1895 18.681 21.1895 18.2441C21.1895 17.8073 21.5436 17.4531 21.9805 17.4531H25.6719C26.1087 17.4531 26.4629 17.8073 26.4629 18.2441C26.4629 18.681 26.1087 19.0352 25.6719 19.0352Z" fill="#BEDCE6"/>
</g>
<defs>
<filter id="filter0_d" x="0" y="0" width="37" height="37" filterUnits="userSpaceOnUse" color-interpolation-filters="sRGB">
<feFlood flood-opacity="0" result="BackgroundImageFix"/>
<feColorMatrix in="SourceAlpha" type="matrix" values="0 0 0 0 0 0 0 0 0 0 0 0 0 0 0 0 0 0 127 0"/>
<feOffset dy="4"/>
<feGaussianBlur stdDeviation="2.5"/>
<feColorMatrix type="matrix" values="0 0 0 0 0 0 0 0 0 0 0 0 0 0 0 0 0 0 0.08 0"/>
<feBlend mode="normal" in2="BackgroundImageFix" result="effect1_dropShadow"/>
<feBlend mode="normal" in="SourceGraphic" in2="effect1_dropShadow" result="shape"/>
</filter>
</defs>
</svg>
